<svg width="2" height="2" viewBox="0 0 2 2" fill="none" xmlns="http://www.w3.org/2000/svg">
<g clip-path="url(#clip0)">
<path opacity="0.502" fill-rule="evenodd" clip-rule="evenodd" d="M51.478 27.694L50.766 8.91302L58.434 0.89502L59.147 19.675L77.941 19.549L70.273 27.568L51.478 27.694ZM58.635 39.738L39.84 39.865L39.127 21.083L46.796 13.065L47.509 31.845L66.303 31.719L58.635 39.738ZM20.363 40.593L12.344 32.925L31.124 32.212L30.999 13.418L39.018 21.086L39.144 39.881L20.363 40.593ZM0.174004 21.287L18.954 20.574L18.829 1.77902L26.848 9.44802L26.974 28.243L8.193 28.955L0.174004 21.287ZM27.521 52.746L28.234 71.528L20.566 79.547L19.852 60.766L1.059 60.892L8.727 52.873L27.521 52.746ZM20.365 40.703L39.159 40.576L39.873 59.358L32.204 67.377L31.49 48.595L12.697 48.722L20.365 40.703ZM58.637 39.848L66.656 47.516L47.875 48.23L48.001 67.024L39.982 59.355L39.855 40.561L58.637 39.848ZM78.826 59.155L60.045 59.868L60.171 78.662L52.152 70.994L52.025 52.199L70.807 51.486L78.826 59.155Z" fill="#F5C506"/>
<path fill-rule="evenodd" clip-rule="evenodd" d="M83.008 54.996H71.913L58.831 41.5L71.913 28.004H83.008L69.928 41.5L83.008 54.996ZM66.169 54.996H55.073L41.992 41.5L55.073 28.004H66.169L53.088 41.5L66.169 54.996ZM28.004 27.927V16.831L41.499 29.912L54.996 16.831V27.927L41.499 41.008L28.004 27.927ZM28.004 11.087V-0.00799561L41.499 13.072L54.996 -0.00799561V11.087L41.499 24.168L28.004 11.087ZM27.927 54.996H16.831L29.912 41.5L16.831 28.004H27.927L41.008 41.5L27.927 54.996ZM11.087 54.996H-0.00800323L13.072 41.5L-0.00800323 28.004H11.087L24.169 41.5L11.087 54.996ZM54.996 55.073V66.168L41.499 53.088L28.004 66.168V55.073L41.499 41.992L54.996 55.073ZM54.996 71.913V83.008L41.499 69.928L28.004 83.008V71.913L41.499 58.831L54.996 71.913Z" fill="#F5C506"/>
</g>
<defs>
<clipPath id="clip0">
<rect width="1.097" height="1.111" fill="white"/>
</clipPath>
</defs>
</svg>
