<svg 
 xmlns="http://www.w3.org/2000/svg"
 xmlns:xlink="http://www.w3.org/1999/xlink"
 width="0.208in" height="0.208in">
<path fill-rule="evenodd"  fill="rgb(245, 197, 6)"
 d="M9.371,7.977 L9.371,7.019 L15.000,7.019 L15.000,7.977 L9.371,7.977 ZM9.185,5.177 L14.260,2.749 L14.676,3.612 L9.599,6.041 L9.185,5.177 ZM8.751,3.041 L12.239,0.000 L12.759,0.593 L9.270,3.635 L8.751,3.041 ZM3.261,10.347 L3.261,7.795 L3.261,7.201 L3.261,4.648 C4.708,3.328 6.469,2.653 7.676,1.179 L7.676,7.201 L7.676,7.795 L7.676,13.817 C6.469,12.342 4.709,11.666 3.261,10.347 ZM-0.000,4.659 L2.915,4.659 L2.915,10.305 L-0.000,10.305 L-0.000,4.659 ZM12.759,14.405 L12.240,14.999 L8.751,11.958 L9.271,11.365 L12.759,14.405 ZM9.409,9.006 L14.484,11.434 L14.070,12.298 L8.993,9.870 L9.409,9.006 Z"/>
</svg>
